<?xml version="1.0" encoding="utf-8"?>
<!-- Generator: Adobe Illustrator 16.0.0, SVG Export Plug-In . SVG Version: 6.00 Build 0)  -->
<!DOCTYPE svg PUBLIC "-//W3C//DTD SVG 1.1//EN" "http://www.w3.org/Graphics/SVG/1.1/DTD/svg11.dtd">
<svg version="1.1" id="Capa_1" xmlns="http://www.w3.org/2000/svg" xmlns:xlink="http://www.w3.org/1999/xlink" x="0px" y="0px"
	 width="247px" height="199px" viewBox="0 0 247 199" enable-background="new 0 0 247 199" xml:space="preserve">
<path fill="#973B8E" d="M177.532,141.563c0,9.372-7.599,16.966-16.97,16.966c-9.371,0-16.969-7.594-16.969-16.966
	s7.598-16.97,16.969-16.97C169.934,124.594,177.532,132.192,177.532,141.563"/>
<path fill="#973B8E" d="M93.375,65.859c-18.409,11.729-23.825,36.157-12.096,54.566c11.729,18.406,36.157,23.822,54.565,12.097
	c18.409-11.729,23.824-36.161,12.099-54.567C136.214,59.549,111.782,54.131,93.375,65.859"/>
<path fill="#0098DC" d="M194.854,109.919c0.042-0.3,0.077-0.6,0.116-0.903c0.032-0.261,0.061-0.522,0.09-0.783
	c0.01-0.087,0.021-0.177,0.032-0.265c0.752-6.941,0.609-13.961-0.43-20.875c-0.034-0.217-0.067-0.437-0.104-0.656
	c-0.015-0.104-0.032-0.206-0.049-0.31c-0.334-2.022-0.745-4.048-1.235-6.073c-1.138-4.673-2.662-9.152-4.525-13.414
	c-0.124-0.28-0.249-0.561-0.378-0.841c-0.056-0.122-0.111-0.245-0.167-0.365c-1.526-3.32-3.297-6.578-5.315-9.745
	c-1.486-2.33-3.07-4.558-4.743-6.685c-0.033-0.039-0.067-0.083-0.1-0.126c-0.323-0.409-0.652-0.813-0.984-1.214
	c-1.563-1.889-3.228-3.727-4.989-5.502c-1.918-1.933-3.911-3.748-5.969-5.446c-5.948-4.895-12.569-8.924-19.646-11.96
	c-0.157-0.068-0.314-0.131-0.471-0.196c-0.385-0.165-0.773-0.325-1.163-0.482c-0.384-0.155-0.771-0.307-1.159-0.455
	c-0.164-0.061-0.324-0.125-0.486-0.187c-6.028-2.267-12.301-3.81-18.685-4.602c-0.341-0.042-0.679-0.075-1.019-0.111
	c-0.271-0.032-0.542-0.065-0.813-0.092c-6.407-0.637-12.878-0.51-19.261,0.378c-2.641,0.37-5.283,0.873-7.927,1.517
	c-4.197,1.021-8.232,2.354-12.096,3.962c-4.197,1.762-8.3,3.896-12.269,6.425c-1.766,1.122-3.475,2.305-5.125,3.542
	c0,0-0.002,0-0.004,0.002c-0.438,0.33-0.869,0.663-1.296,1.002c-0.208,0.159-0.415,0.321-0.62,0.486
	c-0.22,0.174-0.433,0.351-0.65,0.525c-0.41,0.336-0.819,0.672-1.225,1.016c-0.014,0.012-0.026,0.025-0.042,0.037
	c-1.561,1.333-3.085,2.731-4.563,4.2c-1.488,1.476-2.906,2.996-4.254,4.555c-0.014,0.017-0.028,0.033-0.04,0.051
	c-0.39,0.444-0.768,0.896-1.145,1.349c-4.895,5.95-8.929,12.576-11.967,19.655c-0.071,0.168-0.138,0.332-0.207,0.496
	c-0.16,0.38-0.317,0.757-0.472,1.138c-0.157,0.393-0.312,0.788-0.464,1.183c-0.058,0.157-0.118,0.31-0.177,0.464
	c-2.487,6.608-4.103,13.522-4.81,20.543c-0.632,6.393-0.508,12.847,0.377,19.215c0.373,2.647,0.876,5.299,1.521,7.951
	c1.069,4.392,2.482,8.611,4.195,12.637c1.715,4.008,3.772,7.93,6.19,11.723c1.427,2.248,2.951,4.393,4.556,6.444
	c0.157,0.198,0.312,0.396,0.472,0.595c0.179,0.227,0.364,0.449,0.544,0.671c0.33,0.407,0.661,0.808,0.997,1.206
	c0.017,0.019,0.037,0.038,0.053,0.057c1.328,1.56,2.725,3.081,4.193,4.561c1.473,1.484,2.99,2.899,4.546,4.248l0.119,0.1
	c0.423,0.364,0.854,0.728,1.284,1.082c5.953,4.901,12.581,8.938,19.667,11.976c0.155,0.066,0.311,0.133,0.462,0.194
	c0.39,0.165,0.78,0.323,1.172,0.481c0.381,0.156,0.764,0.308,1.152,0.454c0.164,0.062,0.329,0.128,0.495,0.189
	c6.028,2.268,12.308,3.813,18.69,4.603c0.157,0.019,0.314,0.033,0.469,0.052c0.456,0.053,0.907,0.104,1.363,0.151
	c6.402,0.638,12.868,0.511,19.246-0.378c2.641-0.368,5.285-0.874,7.932-1.517c0.041-0.01,0.082-0.024,0.125-0.033l0.129-0.028
	c0.04-0.015,0.081-0.024,0.125-0.033c4.673-1.198,8.384-4.259,10.531-8.195c1.921-3.521,2.586-7.736,1.565-11.942
	c-1.607-6.597-6.922-11.318-13.193-12.481c-2.162-0.402-4.442-0.378-6.719,0.137c-2.517,0.643-5.066,1.068-7.622,1.286h-0.019
	c-0.339,0.028-0.678,0.054-1.015,0.076l-0.488,0.028l-0.533,0.028c-0.3,0.009-0.598,0.019-0.896,0.028c-0.038,0-0.077,0-0.116,0.005
	c-4.251,0.094-8.432-0.388-12.454-1.39c-0.051-0.009-0.102-0.023-0.152-0.038c-0.275-0.071-0.554-0.142-0.83-0.218l-0.519-0.142
	c-0.155-0.047-0.307-0.09-0.462-0.132c-0.293-0.085-0.585-0.175-0.875-0.27c-0.034-0.009-0.063-0.019-0.094-0.028
	c-3.32-1.049-6.546-2.472-9.614-4.268c-0.041-0.023-0.081-0.047-0.125-0.071c-0.219-0.132-0.436-0.26-0.651-0.392l-0.434-0.27
	c-0.121-0.076-0.242-0.153-0.363-0.227c-0.24-0.156-0.476-0.307-0.714-0.463c-0.034-0.023-0.065-0.047-0.099-0.068
	c-2.59-1.723-5.028-3.717-7.273-5.971c-0.029-0.028-0.057-0.052-0.083-0.081c-0.208-0.212-0.416-0.425-0.624-0.643
	c-0.124-0.128-0.244-0.255-0.366-0.388c-0.111-0.118-0.222-0.236-0.333-0.359c-0.23-0.246-0.453-0.5-0.678-0.751
	c-0.005-0.01-0.012-0.014-0.017-0.019c-1.464-1.671-2.816-3.445-4.045-5.326c-0.013-0.014-0.025-0.033-0.037-0.053
	c-0.187-0.285-0.37-0.575-0.552-0.866l-0.147-0.24c-0.141-0.227-0.278-0.457-0.414-0.687c-0.085-0.145-0.169-0.291-0.252-0.434
	c-0.097-0.167-0.193-0.335-0.288-0.503c-0.116-0.21-0.231-0.423-0.349-0.633c-0.055-0.106-0.113-0.212-0.169-0.318
	c-0.147-0.278-0.293-0.557-0.434-0.836c-0.021-0.044-0.043-0.088-0.065-0.129c-0.868-1.732-1.625-3.503-2.272-5.309
	c-0.032-0.092-0.063-0.184-0.097-0.274c-0.07-0.206-0.141-0.414-0.208-0.619c-0.067-0.194-0.134-0.39-0.196-0.583
	c-0.032-0.097-0.058-0.191-0.09-0.286c-1.05-3.339-1.718-6.749-2.008-10.168c-0.002-0.021-0.005-0.041-0.007-0.063
	c-0.023-0.321-0.051-0.648-0.07-0.972c-0.012-0.175-0.022-0.349-0.032-0.528c-0.009-0.162-0.017-0.326-0.023-0.494
	c-0.013-0.31-0.025-0.619-0.032-0.931c0-0.023-0.002-0.051-0.002-0.076c-0.095-4.256,0.387-8.442,1.387-12.463
	c0.014-0.056,0.026-0.109,0.041-0.165c0.071-0.272,0.14-0.547,0.216-0.82c0.046-0.177,0.097-0.351,0.146-0.526
	c0.042-0.152,0.084-0.302,0.127-0.455c0.09-0.295,0.18-0.59,0.271-0.883c0.011-0.032,0.021-0.058,0.027-0.09
	c1.053-3.322,2.475-6.552,4.273-9.623c0.021-0.037,0.044-0.077,0.065-0.113c0.134-0.221,0.266-0.441,0.399-0.661
	c0.087-0.141,0.171-0.284,0.259-0.426c0.08-0.121,0.157-0.245,0.237-0.368c0.15-0.237,0.303-0.471,0.458-0.709
	c0.023-0.034,0.046-0.065,0.067-0.102c1.723-2.584,3.714-5.021,5.965-7.264c0.033-0.037,0.067-0.068,0.104-0.104
	c0.203-0.203,0.409-0.404,0.619-0.603c0.136-0.131,0.271-0.259,0.409-0.388c0.111-0.104,0.222-0.21,0.336-0.312
	c1.894-1.743,3.939-3.334,6.119-4.76c0.005-0.002,0.007-0.005,0.012-0.007c0.3-0.196,0.605-0.389,0.912-0.58
	c0.064-0.042,0.129-0.081,0.191-0.119c0.245-0.149,0.489-0.297,0.736-0.442c0.127-0.078,0.259-0.15,0.386-0.226
	c0.182-0.106,0.366-0.21,0.549-0.312c0.196-0.111,0.392-0.218,0.586-0.324c0.123-0.066,0.245-0.131,0.365-0.194
	c0.263-0.141,0.528-0.276,0.792-0.411c0.058-0.03,0.116-0.059,0.174-0.087c1.421-0.714,2.872-1.353,4.344-1.912
	c0.009-0.005,0.021-0.01,0.031-0.012c0.291-0.111,0.586-0.221,0.879-0.325c0.109-0.038,0.217-0.079,0.326-0.116
	c0.187-0.065,0.372-0.129,0.559-0.191c0.215-0.072,0.432-0.146,0.646-0.213c0.072-0.023,0.146-0.046,0.215-0.069
	c3.359-1.06,6.79-1.733,10.229-2.026c0.009-0.002,0.02-0.002,0.029-0.002c0.333-0.026,0.67-0.053,1.007-0.074
	c0.164-0.012,0.328-0.021,0.493-0.03c0.175-0.009,0.351-0.017,0.526-0.023c0.302-0.014,0.603-0.025,0.902-0.032
	c0.037,0,0.072-0.002,0.109-0.002c4.262-0.094,8.45,0.388,12.475,1.392c0.032,0.007,0.064,0.017,0.095,0.023
	c0.298,0.076,0.593,0.15,0.891,0.233l0.458,0.125c0.174,0.051,0.349,0.1,0.52,0.15c0.274,0.08,0.545,0.163,0.816,0.247
	c0.053,0.018,0.106,0.035,0.16,0.053c3.286,1.041,6.482,2.449,9.522,4.22c0.072,0.044,0.147,0.085,0.22,0.129
	c0.189,0.111,0.374,0.225,0.561,0.335c0.177,0.106,0.351,0.213,0.526,0.323c0.091,0.058,0.183,0.116,0.273,0.174
	c0.271,0.171,0.54,0.344,0.803,0.52c0.005,0.002,0.009,0.007,0.012,0.007c2.613,1.735,5.075,3.744,7.337,6.016
	c0.024,0.023,0.049,0.048,0.072,0.074c0.213,0.214,0.423,0.429,0.635,0.646c0.118,0.126,0.236,0.254,0.355,0.38
	c0.113,0.121,0.227,0.244,0.34,0.368c0.226,0.247,0.45,0.494,0.671,0.748c0.007,0.01,0.014,0.014,0.021,0.024
	c2.156,2.454,4.072,5.144,5.703,8.051c0.062,0.104,0.12,0.21,0.177,0.319c0.141,0.254,0.278,0.508,0.414,0.768
	c0.1,0.186,0.196,0.372,0.293,0.561c0.085,0.167,0.169,0.335,0.254,0.506c0.12,0.244,0.24,0.483,0.355,0.728
	c0.043,0.095,0.085,0.187,0.129,0.279c0.347,0.745,0.677,1.492,0.982,2.252c0.019,0.039,0.034,0.083,0.051,0.124
	c0.145,0.363,0.288,0.726,0.425,1.093c0.066,0.175,0.126,0.349,0.191,0.528c0.083,0.227,0.167,0.459,0.245,0.692
	c0.102,0.292,0.198,0.585,0.293,0.88c0.036,0.113,0.074,0.23,0.111,0.344c0.124,0.395,0.24,0.792,0.353,1.188
	c0.005,0.014,0.01,0.028,0.015,0.042c0.833,2.928,1.375,5.905,1.631,8.888c0.002,0.017,0.002,0.036,0.005,0.056
	c0.034,0.411,0.065,0.818,0.09,1.229c0.017,0.293,0.028,0.588,0.04,0.881c0.006,0.13,0.013,0.263,0.018,0.397
	c0.099,2.985-0.085,5.941-0.535,8.832l0.034,0.007c-0.676,3.24-0.38,6.64,0.885,9.737c0.808,1.977,2.008,3.831,3.606,5.442
	c5.728,5.768,14.622,6.482,21.13,2.117c0.877-0.586,1.706-1.26,2.48-2.027c2.512-2.493,4.061-5.583,4.656-8.817
	c0.164-0.954,0.314-1.912,0.444-2.872C194.842,110.017,194.847,109.97,194.854,109.919"/>
</svg>
